<?xml version="1.0" encoding="UTF-8" standalone="no"?>
<!DOCTYPE svg PUBLIC "-//W3C//DTD SVG 1.1//EN"
 "http://www.w3.org/Graphics/SVG/1.1/DTD/svg11.dtd">
<!-- Generated by graphviz version 12.1.2 (20240928.0832)
 -->
<!-- Title: Graphical Class Hierarchy Pages: 1 -->
<svg width="282pt" height="78pt"
 viewBox="0.00 0.00 281.50 78.00" xmlns="http://www.w3.org/2000/svg" xmlns:xlink="http://www.w3.org/1999/xlink">
<g id="graph0" class="graph" transform="scale(1 1) rotate(0) translate(4 74)">
<title>Graphical Class Hierarchy</title>
<!-- Node0 -->
<g id="Node000000" class="node">
<title>Node0</title>
<g id="a_Node000000"><a xlink:title=" ">
<polygon fill="#e0e0e0" stroke="#999999" points="70,-42 0,-42 0,-22 70,-22 70,-42"/>
<text text-anchor="middle" x="35" y="-28.5" font-family="Helvetica,sans-Serif" font-size="10.00">testing::Test</text>
</a>
</g>
</g>
<!-- Node1 -->
<g id="Node000001" class="node">
<title>Node1</title>
<g id="a_Node000001"><a xlink:href="class_public_transportation_scheduler_structs_test.html" target="_top" xlink:title=" ">
<polygon fill="white" stroke="#666666" points="264.12,-70 115.38,-70 115.38,-38 264.12,-38 264.12,-70"/>
<text text-anchor="start" x="123.38" y="-56.5" font-family="Helvetica,sans-Serif" font-size="10.00">PublicTransportationScheduler</text>
<text text-anchor="middle" x="189.75" y="-44.5" font-family="Helvetica,sans-Serif" font-size="10.00">StructsTest</text>
</a>
</g>
</g>
<!-- Node0&#45;&gt;Node1 -->
<g id="edge1_Node000000_Node000001" class="edge">
<title>Node0&#45;&gt;Node1</title>
<g id="a_edge1_Node000000_Node000001"><a xlink:title=" ">
<path fill="none" stroke="#63b8ff" d="M81.34,-38.53C91.92,-40.05 103.46,-41.72 114.92,-43.37"/>
<polygon fill="#63b8ff" stroke="#63b8ff" points="82.18,-35.11 71.78,-37.15 81.18,-42.04 82.18,-35.11"/>
</a>
</g>
</g>
<!-- Node2 -->
<g id="Node000002" class="node">
<title>Node2</title>
<g id="a_Node000002"><a xlink:href="class_public_transportation_scheduler_test.html" target="_top" xlink:title=" ">
<polygon fill="white" stroke="#666666" points="273.5,-20 106,-20 106,0 273.5,0 273.5,-20"/>
<text text-anchor="middle" x="189.75" y="-6.5" font-family="Helvetica,sans-Serif" font-size="10.00">PublicTransportationSchedulerTest</text>
</a>
</g>
</g>
<!-- Node0&#45;&gt;Node2 -->
<g id="edge2_Node000000_Node000002" class="edge">
<title>Node0&#45;&gt;Node2</title>
<g id="a_edge2_Node000000_Node000002"><a xlink:title=" ">
<path fill="none" stroke="#63b8ff" d="M81.57,-25.44C92.37,-23.88 104.17,-22.18 115.85,-20.5"/>
<polygon fill="#63b8ff" stroke="#63b8ff" points="81.18,-21.96 71.78,-26.85 82.18,-28.89 81.18,-21.96"/>
</a>
</g>
</g>
</g>
</svg>
