<?xml version="1.0" encoding="UTF-8" standalone="no"?>
<!DOCTYPE svg PUBLIC "-//W3C//DTD SVG 1.1//EN"
 "http://www.w3.org/Graphics/SVG/1.1/DTD/svg11.dtd">
<!-- Generated by graphviz version 12.1.2 (20240928.0832)
 -->
<!-- Title: src/publictransportationscheduler/src/publictransportationscheduler.cpp Pages: 1 -->
<svg width="462pt" height="220pt"
 viewBox="0.00 0.00 461.66 220.00" xmlns="http://www.w3.org/2000/svg" xmlns:xlink="http://www.w3.org/1999/xlink">

<svg id="main" version="1.1" xmlns="http://www.w3.org/2000/svg" xmlns:xlink="http://www.w3.org/1999/xlink" xml:space="preserve">

<style type="text/css"><![CDATA[
.node, .edge {opacity: 0.7;}
.node.selected, .edge.selected {opacity: 1;}
.edge:hover path { stroke: red; }
.edge:hover polygon { stroke: red; fill: red; }
]]></style>
<script type="application/ecmascript" xlink:href="svg.min.js"/>
<svg id="graph" class="graph">
<g id="graph0" class="graph" transform="scale(1 1) rotate(0) translate(4 216)">
<title>src/publictransportationscheduler/src/publictransportationscheduler.cpp</title>
<!-- Node1 -->
<g id="Node000001" class="node">
<title>Node1</title>
<g id="a_Node000001"><a xlink:title=" ">
<polygon fill="#999999" stroke="#666666" points="269.12,-212 88.12,-212 88.12,-180 269.12,-180 269.12,-212"/>
<text text-anchor="start" x="96.12" y="-198.5" font-family="Helvetica,sans-Serif" font-size="10.00">src/publictransportationscheduler</text>
<text text-anchor="middle" x="178.62" y="-186.5" font-family="Helvetica,sans-Serif" font-size="10.00">/src/publictransportationscheduler.cpp</text>
</a>
</g>
</g>
<!-- Node2 -->
<g id="Node000002" class="node">
<title>Node2</title>
<g id="a_Node000002"><a xlink:title=" ">
<polygon fill="#e0e0e0" stroke="#999999" points="45.25,-138 0,-138 0,-118 45.25,-118 45.25,-138"/>
<text text-anchor="middle" x="22.62" y="-124.5" font-family="Helvetica,sans-Serif" font-size="10.00">stdio.h</text>
</a>
</g>
</g>
<!-- Node1&#45;&gt;Node2 -->
<g id="edge1_Node000001_Node000002" class="edge">
<title>Node1&#45;&gt;Node2</title>
<g id="a_edge1_Node000001_Node000002"><a xlink:title=" ">
<path fill="none" stroke="#63b8ff" d="M138.95,-179.55C114.24,-169.75 81.89,-156.59 53.62,-144 53.01,-143.73 52.39,-143.45 51.77,-143.17"/>
<polygon fill="#63b8ff" stroke="#63b8ff" points="53.47,-140.1 42.92,-139.03 50.5,-146.44 53.47,-140.1"/>
</a>
</g>
</g>
<!-- Node3 -->
<g id="Node000003" class="node">
<title>Node3</title>
<g id="a_Node000003"><a xlink:title=" ">
<polygon fill="#e0e0e0" stroke="#999999" points="110.38,-138 62.88,-138 62.88,-118 110.38,-118 110.38,-138"/>
<text text-anchor="middle" x="86.62" y="-124.5" font-family="Helvetica,sans-Serif" font-size="10.00">stdlib.h</text>
</a>
</g>
</g>
<!-- Node1&#45;&gt;Node3 -->
<g id="edge2_Node000001_Node000003" class="edge">
<title>Node1&#45;&gt;Node3</title>
<g id="a_edge2_Node000001_Node000003"><a xlink:title=" ">
<path fill="none" stroke="#63b8ff" d="M157.29,-179.69C142.66,-169.2 123.3,-155.31 108.55,-144.73"/>
<polygon fill="#63b8ff" stroke="#63b8ff" points="111.01,-142.18 100.84,-139.2 106.93,-147.87 111.01,-142.18"/>
</a>
</g>
</g>
<!-- Node4 -->
<g id="Node000004" class="node">
<title>Node4</title>
<g id="a_Node000004"><a xlink:title=" ">
<polygon fill="#e0e0e0" stroke="#999999" points="176.75,-138 128.5,-138 128.5,-118 176.75,-118 176.75,-138"/>
<text text-anchor="middle" x="152.62" y="-124.5" font-family="Helvetica,sans-Serif" font-size="10.00">string.h</text>
</a>
</g>
</g>
<!-- Node1&#45;&gt;Node4 -->
<g id="edge3_Node000001_Node000004" class="edge">
<title>Node1&#45;&gt;Node4</title>
<g id="a_edge3_Node000001_Node000004"><a xlink:title=" ">
<path fill="none" stroke="#63b8ff" d="M172.59,-179.69C168.97,-170.5 164.32,-158.7 160.42,-148.8"/>
<polygon fill="#63b8ff" stroke="#63b8ff" points="163.77,-147.75 156.85,-139.72 157.26,-150.31 163.77,-147.75"/>
</a>
</g>
</g>
<!-- Node5 -->
<g id="Node000005" class="node">
<title>Node5</title>
<g id="a_Node000005"><a xlink:title=" ">
<polygon fill="#e0e0e0" stroke="#999999" points="307.75,-20 259.5,-20 259.5,0 307.75,0 307.75,-20"/>
<text text-anchor="middle" x="283.62" y="-6.5" font-family="Helvetica,sans-Serif" font-size="10.00">stdint.h</text>
</a>
</g>
</g>
<!-- Node1&#45;&gt;Node5 -->
<g id="edge4_Node000001_Node000005" class="edge">
<title>Node1&#45;&gt;Node5</title>
<g id="a_edge4_Node000001_Node000005"><a xlink:title=" ">
<path fill="none" stroke="#63b8ff" d="M185.46,-179.51C197.24,-153.32 222.72,-98.94 249.62,-56 255.39,-46.8 262.54,-37.12 268.8,-29.11"/>
<polygon fill="#63b8ff" stroke="#63b8ff" points="271.38,-31.49 274.88,-21.49 265.91,-27.12 271.38,-31.49"/>
</a>
</g>
</g>
<!-- Node6 -->
<g id="Node000006" class="node">
<title>Node6</title>
<g id="a_Node000006"><a xlink:title=" ">
<polygon fill="#e0e0e0" stroke="#999999" points="410.5,-20 354.75,-20 354.75,0 410.5,0 410.5,-20"/>
<text text-anchor="middle" x="382.62" y="-6.5" font-family="Helvetica,sans-Serif" font-size="10.00">stdbool.h</text>
</a>
</g>
</g>
<!-- Node1&#45;&gt;Node6 -->
<g id="edge5_Node000001_Node000006" class="edge">
<title>Node1&#45;&gt;Node6</title>
<g id="a_edge5_Node000001_Node000006"><a xlink:title=" ">
<path fill="none" stroke="#63b8ff" d="M269.57,-189.61C337.29,-183.47 421.66,-170.6 443.62,-144 473.4,-107.95 428.82,-54.97 401.41,-28.06"/>
<polygon fill="#63b8ff" stroke="#63b8ff" points="404,-25.68 394.34,-21.33 399.17,-30.76 404,-25.68"/>
</a>
</g>
</g>
<!-- Node7 -->
<g id="Node000007" class="node">
<title>Node7</title>
<g id="a_Node000007"><a xlink:href="publictransportationschedulerapp_8h.html" target="_top" xlink:title=" ">
<polygon fill="white" stroke="#666666" points="434.62,-144 232.62,-144 232.62,-112 434.62,-112 434.62,-144"/>
<text text-anchor="start" x="240.62" y="-130.5" font-family="Helvetica,sans-Serif" font-size="10.00">../../publictransportationschedulerapp</text>
<text text-anchor="middle" x="333.62" y="-118.5" font-family="Helvetica,sans-Serif" font-size="10.00">/header/publictransportationschedulerapp.h</text>
</a>
</g>
</g>
<!-- Node1&#45;&gt;Node7 -->
<g id="edge6_Node000001_Node000007" class="edge">
<title>Node1&#45;&gt;Node7</title>
<g id="a_edge6_Node000001_Node000007"><a xlink:title=" ">
<path fill="none" stroke="#63b8ff" d="M214.97,-179.53C236.36,-170.41 263.66,-158.79 286.67,-148.99"/>
<polygon fill="#63b8ff" stroke="#63b8ff" points="288.02,-152.22 295.85,-145.08 285.28,-145.78 288.02,-152.22"/>
</a>
</g>
</g>
<!-- Node8 -->
<g id="Node000008" class="node">
<title>Node8</title>
<g id="a_Node000008"><a xlink:href="publictransportationscheduler_8h.html" target="_top" xlink:title=" ">
<polygon fill="white" stroke="#666666" points="409.12,-76 258.12,-76 258.12,-56 409.12,-56 409.12,-76"/>
<text text-anchor="middle" x="333.62" y="-62.5" font-family="Helvetica,sans-Serif" font-size="10.00">publictransportationscheduler.h</text>
</a>
</g>
</g>
<!-- Node7&#45;&gt;Node8 -->
<g id="edge7_Node000007_Node000008" class="edge">
<title>Node7&#45;&gt;Node8</title>
<g id="a_edge7_Node000007_Node000008"><a xlink:title=" ">
<path fill="none" stroke="#63b8ff" d="M333.62,-111.55C333.62,-104.34 333.62,-95.66 333.62,-87.88"/>
<polygon fill="#63b8ff" stroke="#63b8ff" points="337.13,-87.92 333.63,-77.92 330.13,-87.92 337.13,-87.92"/>
</a>
</g>
</g>
<!-- Node8&#45;&gt;Node5 -->
<g id="edge8_Node000008_Node000005" class="edge">
<title>Node8&#45;&gt;Node5</title>
<g id="a_edge8_Node000008_Node000005"><a xlink:title=" ">
<path fill="none" stroke="#63b8ff" d="M324.92,-55.59C318.03,-48.16 308.23,-37.58 299.91,-28.58"/>
<polygon fill="#63b8ff" stroke="#63b8ff" points="302.63,-26.37 293.26,-21.41 297.49,-31.12 302.63,-26.37"/>
</a>
</g>
</g>
<!-- Node8&#45;&gt;Node6 -->
<g id="edge9_Node000008_Node000006" class="edge">
<title>Node8&#45;&gt;Node6</title>
<g id="a_edge9_Node000008_Node000006"><a xlink:title=" ">
<path fill="none" stroke="#63b8ff" d="M342.16,-55.59C348.91,-48.16 358.51,-37.58 366.67,-28.58"/>
<polygon fill="#63b8ff" stroke="#63b8ff" points="369.04,-31.18 373.17,-21.42 363.86,-26.47 369.04,-31.18"/>
</a>
</g>
</g>
</g>
</svg>
</svg>

<style type='text/css'>
<![CDATA[
[data-mouse-over-selected='false'] { opacity: 0.7; }
[data-mouse-over-selected='true']  { opacity: 1.0; }
]]>
</style>
<script type="application/ecmascript"><![CDATA[
document.addEventListener('DOMContentLoaded', (event) => {
  highlightEdges();
  highlightAdjacentNodes();
});
]]></script>
</svg>
