<?xml version="1.0" encoding="UTF-8" standalone="no"?>
<!DOCTYPE svg PUBLIC "-//W3C//DTD SVG 1.1//EN"
 "http://www.w3.org/Graphics/SVG/1.1/DTD/svg11.dtd">
<!-- Generated by graphviz version 12.1.2 (20240928.0832)
 -->
<!-- Title: src/publictransportationschedulerapp/src/publictransportationschedulerapp.cpp Pages: 1 -->
<svg width="629pt" height="276pt"
 viewBox="0.00 0.00 628.88 276.00" xmlns="http://www.w3.org/2000/svg" xmlns:xlink="http://www.w3.org/1999/xlink">
<g id="graph0" class="graph" transform="scale(1 1) rotate(0) translate(4 272)">
<title>src/publictransportationschedulerapp/src/publictransportationschedulerapp.cpp</title>
<!-- Node1 -->
<g id="Node000001" class="node">
<title>Node1</title>
<g id="a_Node000001"><a xlink:title=" ">
<polygon fill="#999999" stroke="#666666" points="400,-268 203.25,-268 203.25,-236 400,-236 400,-268"/>
<text text-anchor="start" x="211.25" y="-254.5" font-family="Helvetica,sans-Serif" font-size="10.00">src/publictransportationschedulerapp</text>
<text text-anchor="middle" x="301.62" y="-242.5" font-family="Helvetica,sans-Serif" font-size="10.00">/src/publictransportationschedulerapp.cpp</text>
</a>
</g>
</g>
<!-- Node2 -->
<g id="Node000002" class="node">
<title>Node2</title>
<g id="a_Node000002"><a xlink:title=" ">
<polygon fill="#e0e0e0" stroke="#999999" points="45.25,-132 0,-132 0,-112 45.25,-112 45.25,-132"/>
<text text-anchor="middle" x="22.62" y="-118.5" font-family="Helvetica,sans-Serif" font-size="10.00">stdio.h</text>
</a>
</g>
</g>
<!-- Node1&#45;&gt;Node2 -->
<g id="edge1_Node000001_Node000002" class="edge">
<title>Node1&#45;&gt;Node2</title>
<g id="a_edge1_Node000001_Node000002"><a xlink:title=" ">
<path fill="none" stroke="#63b8ff" d="M202.93,-236.21C169.66,-228.54 133.23,-217.06 102.62,-200 75.77,-185.03 51.33,-158.83 36.72,-141.2"/>
<polygon fill="#63b8ff" stroke="#63b8ff" points="39.6,-139.2 30.6,-133.6 34.14,-143.58 39.6,-139.2"/>
</a>
</g>
</g>
<!-- Node3 -->
<g id="Node000003" class="node">
<title>Node3</title>
<g id="a_Node000003"><a xlink:title=" ">
<polygon fill="#e0e0e0" stroke="#999999" points="110.38,-132 62.88,-132 62.88,-112 110.38,-112 110.38,-132"/>
<text text-anchor="middle" x="86.62" y="-118.5" font-family="Helvetica,sans-Serif" font-size="10.00">stdlib.h</text>
</a>
</g>
</g>
<!-- Node1&#45;&gt;Node3 -->
<g id="edge2_Node000001_Node000003" class="edge">
<title>Node1&#45;&gt;Node3</title>
<g id="a_edge2_Node000001_Node000003"><a xlink:title=" ">
<path fill="none" stroke="#63b8ff" d="M206.71,-235.5C180.8,-227.93 154.01,-216.69 132.62,-200 113.77,-185.29 100.99,-160.52 93.77,-143.05"/>
<polygon fill="#63b8ff" stroke="#63b8ff" points="97.05,-141.84 90.2,-133.75 90.52,-144.34 97.05,-141.84"/>
</a>
</g>
</g>
<!-- Node4 -->
<g id="Node000004" class="node">
<title>Node4</title>
<g id="a_Node000004"><a xlink:title=" ">
<polygon fill="#e0e0e0" stroke="#999999" points="176.75,-132 128.5,-132 128.5,-112 176.75,-112 176.75,-132"/>
<text text-anchor="middle" x="152.62" y="-118.5" font-family="Helvetica,sans-Serif" font-size="10.00">string.h</text>
</a>
</g>
</g>
<!-- Node1&#45;&gt;Node4 -->
<g id="edge3_Node000001_Node000004" class="edge">
<title>Node1&#45;&gt;Node4</title>
<g id="a_edge3_Node000001_Node000004"><a xlink:title=" ">
<path fill="none" stroke="#63b8ff" d="M202.79,-239.38C179.79,-231.79 157.88,-219.57 143.62,-200 131.59,-183.47 137.01,-159.44 143.41,-142.63"/>
<polygon fill="#63b8ff" stroke="#63b8ff" points="146.5,-144.3 147.2,-133.72 140.06,-141.56 146.5,-144.3"/>
</a>
</g>
</g>
<!-- Node5 -->
<g id="Node000005" class="node">
<title>Node5</title>
<g id="a_Node000005"><a xlink:title=" ">
<polygon fill="#e0e0e0" stroke="#999999" points="540.38,-194 492.88,-194 492.88,-174 540.38,-174 540.38,-194"/>
<text text-anchor="middle" x="516.62" y="-180.5" font-family="Helvetica,sans-Serif" font-size="10.00">conio.h</text>
</a>
</g>
</g>
<!-- Node1&#45;&gt;Node5 -->
<g id="edge4_Node000001_Node000005" class="edge">
<title>Node1&#45;&gt;Node5</title>
<g id="a_edge4_Node000001_Node000005"><a xlink:title=" ">
<path fill="none" stroke="#63b8ff" d="M360.66,-235.51C395.28,-226.05 439.73,-213.25 478.62,-200 480.18,-199.47 481.76,-198.92 483.35,-198.34"/>
<polygon fill="#63b8ff" stroke="#63b8ff" points="484.3,-201.73 492.43,-194.93 481.84,-195.17 484.3,-201.73"/>
</a>
</g>
</g>
<!-- Node6 -->
<g id="Node000006" class="node">
<title>Node6</title>
<g id="a_Node000006"><a xlink:title=" ">
<polygon fill="#e0e0e0" stroke="#999999" points="620.88,-194 558.38,-194 558.38,-174 620.88,-174 620.88,-194"/>
<text text-anchor="middle" x="589.62" y="-180.5" font-family="Helvetica,sans-Serif" font-size="10.00">windows.h</text>
</a>
</g>
</g>
<!-- Node1&#45;&gt;Node6 -->
<g id="edge5_Node000001_Node000006" class="edge">
<title>Node1&#45;&gt;Node6</title>
<g id="a_edge5_Node000001_Node000006"><a xlink:title=" ">
<path fill="none" stroke="#63b8ff" d="M394.03,-235.54C441.04,-226.79 498.84,-214.65 549.62,-200 551.62,-199.42 553.66,-198.79 555.71,-198.13"/>
<polygon fill="#63b8ff" stroke="#63b8ff" points="556.84,-201.44 565.13,-194.84 554.54,-194.83 556.84,-201.44"/>
</a>
</g>
</g>
<!-- Node7 -->
<g id="Node000007" class="node">
<title>Node7</title>
<g id="a_Node000007"><a xlink:href="publictransportationscheduler_8h.html" target="_top" xlink:title=" ">
<polygon fill="white" stroke="#666666" points="425.12,-76 274.12,-76 274.12,-56 425.12,-56 425.12,-76"/>
<text text-anchor="middle" x="349.62" y="-62.5" font-family="Helvetica,sans-Serif" font-size="10.00">publictransportationscheduler.h</text>
</a>
</g>
</g>
<!-- Node1&#45;&gt;Node7 -->
<g id="edge6_Node000001_Node000007" class="edge">
<title>Node1&#45;&gt;Node7</title>
<g id="a_edge6_Node000001_Node000007"><a xlink:title=" ">
<path fill="none" stroke="#63b8ff" d="M333.37,-235.62C368.3,-216.71 422.55,-181 445.62,-132 457.35,-107.11 429.17,-90.26 400.37,-79.97"/>
<polygon fill="#63b8ff" stroke="#63b8ff" points="401.83,-76.77 391.24,-76.95 399.63,-83.41 401.83,-76.77"/>
</a>
</g>
</g>
<!-- Node10 -->
<g id="Node000010" class="node">
<title>Node10</title>
<g id="a_Node000010"><a xlink:href="publictransportationschedulerapp_8h.html" target="_top" xlink:title=" ">
<polygon fill="white" stroke="#666666" points="437,-132 270.25,-132 270.25,-112 437,-112 437,-132"/>
<text text-anchor="middle" x="353.62" y="-118.5" font-family="Helvetica,sans-Serif" font-size="10.00">publictransportationschedulerapp.h</text>
</a>
</g>
</g>
<!-- Node1&#45;&gt;Node10 -->
<g id="edge9_Node000001_Node000010" class="edge">
<title>Node1&#45;&gt;Node10</title>
<g id="a_edge9_Node000001_Node000010"><a xlink:title=" ">
<path fill="none" stroke="#63b8ff" d="M317.78,-235.5C326.59,-226.09 336.84,-213.34 342.62,-200 350.43,-182.02 352.92,-159.66 353.61,-143.68"/>
<polygon fill="#63b8ff" stroke="#63b8ff" points="357.11,-144.02 353.82,-133.95 350.11,-143.87 357.11,-144.02"/>
</a>
</g>
</g>
<!-- Node11 -->
<g id="Node000011" class="node">
<title>Node11</title>
<g id="a_Node000011"><a xlink:href="publictransportationscheduler_8cpp.html" target="_top" xlink:title=" ">
<polygon fill="white" stroke="#666666" points="333.12,-200 152.12,-200 152.12,-168 333.12,-168 333.12,-200"/>
<text text-anchor="start" x="160.12" y="-186.5" font-family="Helvetica,sans-Serif" font-size="10.00">../../publictransportationscheduler</text>
<text text-anchor="middle" x="242.62" y="-174.5" font-family="Helvetica,sans-Serif" font-size="10.00">/src/publictransportationscheduler.cpp</text>
</a>
</g>
</g>
<!-- Node1&#45;&gt;Node11 -->
<g id="edge11_Node000001_Node000011" class="edge">
<title>Node1&#45;&gt;Node11</title>
<g id="a_edge11_Node000001_Node000011"><a xlink:title=" ">
<path fill="none" stroke="#63b8ff" d="M287.94,-235.69C280.79,-227.7 271.88,-217.73 263.86,-208.76"/>
<polygon fill="#63b8ff" stroke="#63b8ff" points="266.52,-206.48 257.24,-201.35 261.3,-211.14 266.52,-206.48"/>
</a>
</g>
</g>
<!-- Node8 -->
<g id="Node000008" class="node">
<title>Node8</title>
<g id="a_Node000008"><a xlink:title=" ">
<polygon fill="#e0e0e0" stroke="#999999" points="264.75,-20 216.5,-20 216.5,0 264.75,0 264.75,-20"/>
<text text-anchor="middle" x="240.62" y="-6.5" font-family="Helvetica,sans-Serif" font-size="10.00">stdint.h</text>
</a>
</g>
</g>
<!-- Node7&#45;&gt;Node8 -->
<g id="edge7_Node000007_Node000008" class="edge">
<title>Node7&#45;&gt;Node8</title>
<g id="a_edge7_Node000007_Node000008"><a xlink:title=" ">
<path fill="none" stroke="#63b8ff" d="M330.64,-55.59C313.86,-47.28 289.13,-35.03 269.84,-25.47"/>
<polygon fill="#63b8ff" stroke="#63b8ff" points="271.63,-22.45 261.12,-21.15 268.52,-28.73 271.63,-22.45"/>
</a>
</g>
</g>
<!-- Node9 -->
<g id="Node000009" class="node">
<title>Node9</title>
<g id="a_Node000009"><a xlink:title=" ">
<polygon fill="#e0e0e0" stroke="#999999" points="357.5,-20 301.75,-20 301.75,0 357.5,0 357.5,-20"/>
<text text-anchor="middle" x="329.62" y="-6.5" font-family="Helvetica,sans-Serif" font-size="10.00">stdbool.h</text>
</a>
</g>
</g>
<!-- Node7&#45;&gt;Node9 -->
<g id="edge8_Node000007_Node000009" class="edge">
<title>Node7&#45;&gt;Node9</title>
<g id="a_edge8_Node000007_Node000009"><a xlink:title=" ">
<path fill="none" stroke="#63b8ff" d="M346.14,-55.59C343.62,-48.78 340.11,-39.32 336.98,-30.86"/>
<polygon fill="#63b8ff" stroke="#63b8ff" points="340.35,-29.88 333.59,-21.72 333.79,-32.31 340.35,-29.88"/>
</a>
</g>
</g>
<!-- Node10&#45;&gt;Node7 -->
<g id="edge10_Node000010_Node000007" class="edge">
<title>Node10&#45;&gt;Node7</title>
<g id="a_edge10_Node000010_Node000007"><a xlink:title=" ">
<path fill="none" stroke="#63b8ff" d="M352.93,-111.59C352.44,-105.01 351.77,-95.96 351.16,-87.73"/>
<polygon fill="#63b8ff" stroke="#63b8ff" points="354.65,-87.52 350.43,-77.81 347.67,-88.04 354.65,-87.52"/>
</a>
</g>
</g>
<!-- Node11&#45;&gt;Node2 -->
<g id="edge12_Node000011_Node000002" class="edge">
<title>Node11&#45;&gt;Node2</title>
<g id="a_edge12_Node000011_Node000002"><a xlink:title=" ">
<path fill="none" stroke="#63b8ff" d="M184.22,-167.55C149.46,-158.28 104.22,-146.1 56.5,-132.77"/>
<polygon fill="#63b8ff" stroke="#63b8ff" points="57.66,-129.47 47.09,-130.14 55.78,-136.21 57.66,-129.47"/>
</a>
</g>
</g>
<!-- Node11&#45;&gt;Node3 -->
<g id="edge13_Node000011_Node000003" class="edge">
<title>Node11&#45;&gt;Node3</title>
<g id="a_edge13_Node000011_Node000003"><a xlink:title=" ">
<path fill="none" stroke="#63b8ff" d="M202.45,-167.55C177.36,-157.9 145.37,-145.59 121.37,-136.36"/>
<polygon fill="#63b8ff" stroke="#63b8ff" points="122.63,-133.1 112.04,-132.78 120.12,-139.63 122.63,-133.1"/>
</a>
</g>
</g>
<!-- Node11&#45;&gt;Node4 -->
<g id="edge14_Node000011_Node000004" class="edge">
<title>Node11&#45;&gt;Node4</title>
<g id="a_edge14_Node000011_Node000004"><a xlink:title=" ">
<path fill="none" stroke="#63b8ff" d="M219.45,-167.55C206.17,-158.69 189.54,-147.61 176.19,-138.71"/>
<polygon fill="#63b8ff" stroke="#63b8ff" points="178.26,-135.88 168,-133.25 174.38,-141.71 178.26,-135.88"/>
</a>
</g>
</g>
<!-- Node11&#45;&gt;Node8 -->
<g id="edge15_Node000011_Node000008" class="edge">
<title>Node11&#45;&gt;Node8</title>
<g id="a_edge15_Node000011_Node000008"><a xlink:title=" ">
<path fill="none" stroke="#63b8ff" d="M237.24,-167.6C234.03,-157.6 230.27,-144.19 228.62,-132 224.11,-98.52 224.24,-89.49 228.62,-56 229.71,-47.69 231.89,-38.73 234.09,-31.01"/>
<polygon fill="#63b8ff" stroke="#63b8ff" points="237.39,-32.2 236.98,-21.61 230.7,-30.14 237.39,-32.2"/>
</a>
</g>
</g>
<!-- Node11&#45;&gt;Node9 -->
<g id="edge16_Node000011_Node000009" class="edge">
<title>Node11&#45;&gt;Node9</title>
<g id="a_edge16_Node000011_Node000009"><a xlink:title=" ">
<path fill="none" stroke="#63b8ff" d="M241.81,-167.58C241.21,-142.25 243.18,-91.12 265.62,-56 273.62,-43.48 286.47,-33.45 298.56,-26.06"/>
<polygon fill="#63b8ff" stroke="#63b8ff" points="300.12,-29.19 307.1,-21.22 296.68,-23.1 300.12,-29.19"/>
</a>
</g>
</g>
<!-- Node11&#45;&gt;Node10 -->
<g id="edge17_Node000011_Node000010" class="edge">
<title>Node11&#45;&gt;Node10</title>
<g id="a_edge17_Node000011_Node000010"><a xlink:title=" ">
<path fill="none" stroke="#63b8ff" d="M271.21,-167.55C288.23,-158.35 309.71,-146.74 326.47,-137.68"/>
<polygon fill="#63b8ff" stroke="#63b8ff" points="327.76,-140.96 334.89,-133.13 324.43,-134.8 327.76,-140.96"/>
</a>
</g>
</g>
</g>
</svg>
