<?xml version="1.0" encoding="UTF-8" standalone="no"?>
<!DOCTYPE svg PUBLIC "-//W3C//DTD SVG 1.1//EN"
 "http://www.w3.org/Graphics/SVG/1.1/DTD/svg11.dtd">
<!-- Generated by graphviz version 12.1.2 (20240928.0832)
 -->
<!-- Title: BPlusTreeNode Pages: 1 -->
<svg width="148pt" height="240pt"
 viewBox="0.00 0.00 147.75 240.00" xmlns="http://www.w3.org/2000/svg" xmlns:xlink="http://www.w3.org/1999/xlink">

<svg id="main" version="1.1" xmlns="http://www.w3.org/2000/svg" xmlns:xlink="http://www.w3.org/1999/xlink" xml:space="preserve">

<style type="text/css"><![CDATA[
.node, .edge {opacity: 0.7;}
.node.selected, .edge.selected {opacity: 1;}
.edge:hover path { stroke: red; }
.edge:hover polygon { stroke: red; fill: red; }
]]></style>
<script type="application/ecmascript" xlink:href="svg.min.js"/>
<svg id="graph" class="graph">
<g id="graph0" class="graph" transform="scale(1 1) rotate(0) translate(4 236)">
<title>BPlusTreeNode</title>
<!-- Node1 -->
<g id="Node000001" class="node">
<title>Node1</title>
<g id="a_Node000001"><a xlink:title=" ">
<polygon fill="#999999" stroke="none" points="79,-84 0,-84 0,0 79,0 79,-84"/>
<text text-anchor="start" x="5" y="-70.5" font-family="Helvetica,sans-Serif" font-size="10.00">BPlusTreeNode</text>
<text text-anchor="start" x="9" y="-54.5" font-family="Helvetica,sans-Serif" font-size="10.00">+</text>
<text text-anchor="start" x="24" y="-54.5" font-family="Helvetica,sans-Serif" font-size="10.00">keys</text>
<text text-anchor="start" x="9" y="-38.5" font-family="Helvetica,sans-Serif" font-size="10.00">+</text>
<text text-anchor="start" x="24" y="-38.5" font-family="Helvetica,sans-Serif" font-size="10.00">numKeys</text>
<text text-anchor="start" x="9" y="-22.5" font-family="Helvetica,sans-Serif" font-size="10.00">+</text>
<text text-anchor="start" x="24" y="-22.5" font-family="Helvetica,sans-Serif" font-size="10.00">isLeaf</text>
<text text-anchor="start" x="38" y="-6.5" font-family="Helvetica,sans-Serif" font-size="10.00"> </text>
<polygon fill="#666666" stroke="#666666" points="0,-66 0,-66 79,-66 79,-66 0,-66"/>
<polygon fill="#666666" stroke="#666666" points="0,-18 0,-18 22,-18 22,-18 0,-18"/>
<polygon fill="#666666" stroke="#666666" points="22,-18 22,-18 79,-18 79,-18 22,-18"/>
<polygon fill="none" stroke="#666666" points="0,0 0,-84 79,-84 79,0 0,0"/>
</a>
</g>
</g>
<!-- Node1&#45;&gt;Node1 -->
<g id="edge2_Node000001_Node000001" class="edge">
<title>Node1&#45;&gt;Node1</title>
<g id="a_edge2_Node000001_Node000001"><a xlink:title=" ">
<path fill="none" stroke="#63b8ff" d="M78.74,-54.27C89.13,-53.57 97,-49.48 97,-42 97,-38.03 94.78,-35.01 91.14,-32.95"/>
<polygon fill="none" stroke="#63b8ff" points="91.23,-32.98 84.41,-35.34 79.61,-29.96 86.42,-27.6 91.23,-32.98"/>
</a>
</g>
<text text-anchor="middle" x="118.38" y="-44.5" font-family="Helvetica,sans-Serif" font-size="10.00" fill="grey"> +children</text>
<text text-anchor="middle" x="118.38" y="-32.5" font-family="Helvetica,sans-Serif" font-size="10.00" fill="grey">+next</text>
</g>
<!-- Node2 -->
<g id="Node000002" class="node">
<title>Node2</title>
<g id="a_Node000002"><a xlink:href="struct_ticket_sale.html" target="_top" xlink:title=" ">
<polygon fill="white" stroke="none" points="71,-232 8,-232 8,-132 71,-132 71,-232"/>
<text text-anchor="start" x="16.25" y="-218.5" font-family="Helvetica,sans-Serif" font-size="10.00">TicketSale</text>
<text text-anchor="start" x="12" y="-202.5" font-family="Helvetica,sans-Serif" font-size="10.00">+</text>
<text text-anchor="start" x="22" y="-202.5" font-family="Helvetica,sans-Serif" font-size="10.00">saleID</text>
<text text-anchor="start" x="12" y="-186.5" font-family="Helvetica,sans-Serif" font-size="10.00">+</text>
<text text-anchor="start" x="22" y="-186.5" font-family="Helvetica,sans-Serif" font-size="10.00">ticketType</text>
<text text-anchor="start" x="12" y="-170.5" font-family="Helvetica,sans-Serif" font-size="10.00">+</text>
<text text-anchor="start" x="22" y="-170.5" font-family="Helvetica,sans-Serif" font-size="10.00">amount</text>
<text text-anchor="start" x="12" y="-154.5" font-family="Helvetica,sans-Serif" font-size="10.00">+</text>
<text text-anchor="start" x="22" y="-154.5" font-family="Helvetica,sans-Serif" font-size="10.00">date</text>
<text text-anchor="start" x="38" y="-138.5" font-family="Helvetica,sans-Serif" font-size="10.00"> </text>
<polygon fill="#666666" stroke="#666666" points="8,-214 8,-214 71,-214 71,-214 8,-214"/>
<polygon fill="#666666" stroke="#666666" points="8,-150 8,-150 20,-150 20,-150 8,-150"/>
<polygon fill="#666666" stroke="#666666" points="20,-150 20,-150 71,-150 71,-150 20,-150"/>
<polygon fill="none" stroke="#666666" points="8,-132 8,-232 71,-232 71,-132 8,-132"/>
</a>
</g>
</g>
<!-- Node2&#45;&gt;Node1 -->
<g id="edge1_Node000001_Node000002" class="edge">
<title>Node2&#45;&gt;Node1</title>
<g id="a_edge1_Node000001_Node000002"><a xlink:title=" ">
<path fill="none" stroke="#63b8ff" d="M39.5,-132.35C39.5,-120.84 39.5,-108.51 39.5,-96.8"/>
<polygon fill="none" stroke="#63b8ff" points="39.5,-96.81 35.5,-90.81 39.5,-84.81 43.5,-90.81 39.5,-96.81"/>
</a>
</g>
<text text-anchor="middle" x="55.62" y="-104.5" font-family="Helvetica,sans-Serif" font-size="10.00" fill="grey"> +sales</text>
</g>
</g>
</svg>
</svg>

<style type='text/css'>
<![CDATA[
[data-mouse-over-selected='false'] { opacity: 0.7; }
[data-mouse-over-selected='true']  { opacity: 1.0; }
]]>
</style>
<script type="application/ecmascript"><![CDATA[
document.addEventListener('DOMContentLoaded', (event) => {
  highlightEdges();
  highlightAdjacentNodes();
});
]]></script>
</svg>
