<?xml version="1.0" encoding="UTF-8" standalone="no"?>
<!DOCTYPE svg PUBLIC "-//W3C//DTD SVG 1.1//EN"
 "http://www.w3.org/Graphics/SVG/1.1/DTD/svg11.dtd">
<!-- Generated by graphviz version 12.1.2 (20240928.0832)
 -->
<!-- Title: XORNode Pages: 1 -->
<svg width="106pt" height="60pt"
 viewBox="0.00 0.00 105.75 60.00" xmlns="http://www.w3.org/2000/svg" xmlns:xlink="http://www.w3.org/1999/xlink">

<svg id="main" version="1.1" xmlns="http://www.w3.org/2000/svg" xmlns:xlink="http://www.w3.org/1999/xlink" xml:space="preserve">

<style type="text/css"><![CDATA[
.node, .edge {opacity: 0.7;}
.node.selected, .edge.selected {opacity: 1;}
.edge:hover path { stroke: red; }
.edge:hover polygon { stroke: red; fill: red; }
]]></style>
<script type="application/ecmascript" xlink:href="svg.min.js"/>
<svg id="graph" class="graph">
<g id="graph0" class="graph" transform="scale(1 1) rotate(0) translate(4 56)">
<title>XORNode</title>
<!-- Node1 -->
<g id="Node000001" class="node">
<title>Node1</title>
<g id="a_Node000001"><a xlink:title=" ">
<polygon fill="#999999" stroke="none" points="55,-52 0,-52 0,0 55,0 55,-52"/>
<text text-anchor="start" x="5" y="-38.5" font-family="Helvetica,sans-Serif" font-size="10.00">XORNode</text>
<text text-anchor="start" x="8.5" y="-22.5" font-family="Helvetica,sans-Serif" font-size="10.00">+</text>
<text text-anchor="start" x="23" y="-22.5" font-family="Helvetica,sans-Serif" font-size="10.00">data</text>
<text text-anchor="start" x="26" y="-6.5" font-family="Helvetica,sans-Serif" font-size="10.00"> </text>
<polygon fill="#666666" stroke="#666666" points="0,-34 0,-34 55,-34 55,-34 0,-34"/>
<polygon fill="#666666" stroke="#666666" points="0,-18 0,-18 21,-18 21,-18 0,-18"/>
<polygon fill="#666666" stroke="#666666" points="21,-18 21,-18 55,-18 55,-18 21,-18"/>
<polygon fill="none" stroke="#666666" points="0,0 0,-52 55,-52 55,0 0,0"/>
</a>
</g>
</g>
<!-- Node1&#45;&gt;Node1 -->
<g id="edge1_Node000001_Node000001" class="edge">
<title>Node1&#45;&gt;Node1</title>
<g id="a_edge1_Node000001_Node000001"><a xlink:title=" ">
<path fill="none" stroke="#63b8ff" d="M54.59,-35.73C64.69,-36.05 73,-32.8 73,-26 73,-22.49 70.79,-19.93 67.27,-18.31"/>
<polygon fill="none" stroke="#63b8ff" points="67.33,-18.33 60.77,-21.32 55.48,-16.41 62.04,-13.42 67.33,-18.33"/>
</a>
</g>
<text text-anchor="middle" x="85.38" y="-22.5" font-family="Helvetica,sans-Serif" font-size="10.00" fill="grey"> +npx</text>
</g>
</g>
</svg>
</svg>

<style type='text/css'>
<![CDATA[
[data-mouse-over-selected='false'] { opacity: 0.7; }
[data-mouse-over-selected='true']  { opacity: 1.0; }
]]>
</style>
<script type="application/ecmascript"><![CDATA[
document.addEventListener('DOMContentLoaded', (event) => {
  highlightEdges();
  highlightAdjacentNodes();
});
]]></script>
</svg>
