<?xml version="1.0" encoding="UTF-8" standalone="no"?>
<!DOCTYPE svg PUBLIC "-//W3C//DTD SVG 1.1//EN"
 "http://www.w3.org/Graphics/SVG/1.1/DTD/svg11.dtd">
<!-- Generated by graphviz version 12.1.2 (20240928.0832)
 -->
<!-- Title: ScheduleNode Pages: 1 -->
<svg width="127pt" height="92pt"
 viewBox="0.00 0.00 126.75 92.00" xmlns="http://www.w3.org/2000/svg" xmlns:xlink="http://www.w3.org/1999/xlink">
<g id="graph0" class="graph" transform="scale(1 1) rotate(0) translate(4 88)">
<title>ScheduleNode</title>
<!-- Node1 -->
<g id="Node000001" class="node">
<title>Node1</title>
<g id="a_Node000001"><a xlink:title=" ">
<polygon fill="#999999" stroke="none" points="73,-84 0,-84 0,0 73,0 73,-84"/>
<text text-anchor="start" x="4.62" y="-70.5" font-family="Helvetica,sans-Serif" font-size="10.00">ScheduleNode</text>
<text text-anchor="start" x="5.5" y="-54.5" font-family="Helvetica,sans-Serif" font-size="10.00">+</text>
<text text-anchor="start" x="17" y="-54.5" font-family="Helvetica,sans-Serif" font-size="10.00">scheduleID</text>
<text text-anchor="start" x="5.5" y="-38.5" font-family="Helvetica,sans-Serif" font-size="10.00">+</text>
<text text-anchor="start" x="17" y="-38.5" font-family="Helvetica,sans-Serif" font-size="10.00">bandName</text>
<text text-anchor="start" x="5.5" y="-22.5" font-family="Helvetica,sans-Serif" font-size="10.00">+</text>
<text text-anchor="start" x="17" y="-22.5" font-family="Helvetica,sans-Serif" font-size="10.00">date</text>
<text text-anchor="start" x="35" y="-6.5" font-family="Helvetica,sans-Serif" font-size="10.00"> </text>
<polygon fill="#666666" stroke="#666666" points="0,-66 0,-66 73,-66 73,-66 0,-66"/>
<polygon fill="#666666" stroke="#666666" points="0,-18 0,-18 15,-18 15,-18 0,-18"/>
<polygon fill="#666666" stroke="#666666" points="15,-18 15,-18 73,-18 73,-18 15,-18"/>
<polygon fill="none" stroke="#666666" points="0,0 0,-84 73,-84 73,0 0,0"/>
</a>
</g>
</g>
<!-- Node1&#45;&gt;Node1 -->
<g id="edge1_Node000001_Node000001" class="edge">
<title>Node1&#45;&gt;Node1</title>
<g id="a_edge1_Node000001_Node000001"><a xlink:title=" ">
<path fill="none" stroke="#63b8ff" d="M72.92,-57.67C83.15,-56.99 91,-51.76 91,-42 91,-36.81 88.78,-32.91 85.17,-30.28"/>
<polygon fill="none" stroke="#63b8ff" points="85.2,-30.29 78.26,-32.26 73.78,-26.6 80.72,-24.64 85.2,-30.29"/>
</a>
</g>
<text text-anchor="middle" x="104.88" y="-44.5" font-family="Helvetica,sans-Serif" font-size="10.00" fill="grey"> +next</text>
<text text-anchor="middle" x="104.88" y="-32.5" font-family="Helvetica,sans-Serif" font-size="10.00" fill="grey">+prev</text>
</g>
</g>
</svg>
