<?xml version="1.0" encoding="UTF-8" standalone="no"?>
<!DOCTYPE svg PUBLIC "-//W3C//DTD SVG 1.1//EN"
 "http://www.w3.org/Graphics/SVG/1.1/DTD/svg11.dtd">
<!-- Generated by graphviz version 12.1.2 (20240928.0832)
 -->
<!-- Title: src/publictransportationschedulerapp/header/publictransportationschedulerapp.h Pages: 1 -->
<svg width="210pt" height="152pt"
 viewBox="0.00 0.00 210.00 152.00" xmlns="http://www.w3.org/2000/svg" xmlns:xlink="http://www.w3.org/1999/xlink">
<g id="graph0" class="graph" transform="scale(1 1) rotate(0) translate(4 148)">
<title>src/publictransportationschedulerapp/header/publictransportationschedulerapp.h</title>
<!-- Node1 -->
<g id="Node000001" class="node">
<title>Node1</title>
<g id="a_Node000001"><a xlink:title=" ">
<polygon fill="#999999" stroke="#666666" points="202,-144 0,-144 0,-112 202,-112 202,-144"/>
<text text-anchor="start" x="8" y="-130.5" font-family="Helvetica,sans-Serif" font-size="10.00">src/publictransportationschedulerapp</text>
<text text-anchor="middle" x="101" y="-118.5" font-family="Helvetica,sans-Serif" font-size="10.00">/header/publictransportationschedulerapp.h</text>
</a>
</g>
</g>
<!-- Node2 -->
<g id="Node000002" class="node">
<title>Node2</title>
<g id="a_Node000002"><a xlink:href="$publictransportationscheduler_8h.html" xlink:title=" ">
<polygon fill="white" stroke="#666666" points="176.5,-76 25.5,-76 25.5,-56 176.5,-56 176.5,-76"/>
<text text-anchor="middle" x="101" y="-62.5" font-family="Helvetica,sans-Serif" font-size="10.00">publictransportationscheduler.h</text>
</a>
</g>
</g>
<!-- Node1&#45;&gt;Node2 -->
<g id="edge7_Node000001_Node000002" class="edge">
<title>Node1&#45;&gt;Node2</title>
<g id="a_edge7_Node000001_Node000002"><a xlink:title=" ">
<path fill="none" stroke="#63b8ff" d="M101,-111.55C101,-104.34 101,-95.66 101,-87.88"/>
<polygon fill="#63b8ff" stroke="#63b8ff" points="104.5,-87.92 101,-77.92 97.5,-87.92 104.5,-87.92"/>
</a>
</g>
</g>
<!-- Node3 -->
<g id="Node000003" class="node">
<title>Node3</title>
<g id="a_Node000003"><a xlink:title=" ">
<polygon fill="#e0e0e0" stroke="#999999" points="90.12,-20 41.88,-20 41.88,0 90.12,0 90.12,-20"/>
<text text-anchor="middle" x="66" y="-6.5" font-family="Helvetica,sans-Serif" font-size="10.00">stdint.h</text>
</a>
</g>
</g>
<!-- Node2&#45;&gt;Node3 -->
<g id="edge8_Node000002_Node000003" class="edge">
<title>Node2&#45;&gt;Node3</title>
<g id="a_edge8_Node000002_Node000003"><a xlink:title=" ">
<path fill="none" stroke="#63b8ff" d="M94.9,-55.59C90.29,-48.47 83.79,-38.45 78.13,-29.72"/>
<polygon fill="#63b8ff" stroke="#63b8ff" points="81.23,-28.06 72.85,-21.57 75.35,-31.86 81.23,-28.06"/>
</a>
</g>
</g>
<!-- Node4 -->
<g id="Node000004" class="node">
<title>Node4</title>
<g id="a_Node000004"><a xlink:title=" ">
<polygon fill="#e0e0e0" stroke="#999999" points="163.88,-20 108.12,-20 108.12,0 163.88,0 163.88,-20"/>
<text text-anchor="middle" x="136" y="-6.5" font-family="Helvetica,sans-Serif" font-size="10.00">stdbool.h</text>
</a>
</g>
</g>
<!-- Node2&#45;&gt;Node4 -->
<g id="edge9_Node000002_Node000004" class="edge">
<title>Node2&#45;&gt;Node4</title>
<g id="a_edge9_Node000002_Node000004"><a xlink:title=" ">
<path fill="none" stroke="#63b8ff" d="M107.1,-55.59C111.71,-48.47 118.21,-38.45 123.87,-29.72"/>
<polygon fill="#63b8ff" stroke="#63b8ff" points="126.65,-31.86 129.15,-21.57 120.77,-28.06 126.65,-31.86"/>
</a>
</g>
</g>
</g>
</svg>
