<?xml version="1.0" encoding="UTF-8" standalone="no"?>
<!DOCTYPE svg PUBLIC "-//W3C//DTD SVG 1.1//EN"
 "http://www.w3.org/Graphics/SVG/1.1/DTD/svg11.dtd">
<!-- Generated by graphviz version 12.1.2 (20240928.0832)
 -->
<!-- Title: src/publictransportationscheduler/header/publictransportationscheduler.h Pages: 1 -->
<svg width="194pt" height="96pt"
 viewBox="0.00 0.00 194.25 96.00" xmlns="http://www.w3.org/2000/svg" xmlns:xlink="http://www.w3.org/1999/xlink">
<g id="graph0" class="graph" transform="scale(1 1) rotate(0) translate(4 92)">
<title>src/publictransportationscheduler/header/publictransportationscheduler.h</title>
<!-- Node1 -->
<g id="Node000001" class="node">
<title>Node1</title>
<g id="a_Node000001"><a xlink:title=" ">
<polygon fill="#999999" stroke="#666666" points="186.25,-88 0,-88 0,-56 186.25,-56 186.25,-88"/>
<text text-anchor="start" x="8" y="-74.5" font-family="Helvetica,sans-Serif" font-size="10.00">src/publictransportationscheduler</text>
<text text-anchor="middle" x="93.12" y="-62.5" font-family="Helvetica,sans-Serif" font-size="10.00">/header/publictransportationscheduler.h</text>
</a>
</g>
</g>
<!-- Node2 -->
<g id="Node000002" class="node">
<title>Node2</title>
<g id="a_Node000002"><a xlink:title=" ">
<polygon fill="#e0e0e0" stroke="#999999" points="82.25,-20 34,-20 34,0 82.25,0 82.25,-20"/>
<text text-anchor="middle" x="58.12" y="-6.5" font-family="Helvetica,sans-Serif" font-size="10.00">stdint.h</text>
</a>
</g>
</g>
<!-- Node1&#45;&gt;Node2 -->
<g id="edge5_Node000001_Node000002" class="edge">
<title>Node1&#45;&gt;Node2</title>
<g id="a_edge5_Node000001_Node000002"><a xlink:title=" ">
<path fill="none" stroke="#63b8ff" d="M84.11,-55.55C79.61,-47.82 74.11,-38.4 69.33,-30.21"/>
<polygon fill="#63b8ff" stroke="#63b8ff" points="72.44,-28.59 64.38,-21.72 66.39,-32.12 72.44,-28.59"/>
</a>
</g>
</g>
<!-- Node3 -->
<g id="Node000003" class="node">
<title>Node3</title>
<g id="a_Node000003"><a xlink:title=" ">
<polygon fill="#e0e0e0" stroke="#999999" points="156,-20 100.25,-20 100.25,0 156,0 156,-20"/>
<text text-anchor="middle" x="128.12" y="-6.5" font-family="Helvetica,sans-Serif" font-size="10.00">stdbool.h</text>
</a>
</g>
</g>
<!-- Node1&#45;&gt;Node3 -->
<g id="edge6_Node000001_Node000003" class="edge">
<title>Node1&#45;&gt;Node3</title>
<g id="a_edge6_Node000001_Node000003"><a xlink:title=" ">
<path fill="none" stroke="#63b8ff" d="M102.14,-55.55C106.64,-47.82 112.14,-38.4 116.92,-30.21"/>
<polygon fill="#63b8ff" stroke="#63b8ff" points="119.86,-32.12 121.87,-21.72 113.81,-28.59 119.86,-32.12"/>
</a>
</g>
</g>
</g>
</svg>
